<?xml version="1.0" encoding="UTF-8"?>
<svg width="28px" height="28px" viewBox="0 0 28 28" version="1.1" xmlns="http://www.w3.org/2000/svg" xmlns:xlink="http://www.w3.org/1999/xlink">
    <!-- Generator: Sketch 61 (89581) - https://sketch.com -->
    <title>按钮@1x</title>
    <desc>Created with Sketch.</desc>
    <g id="-弦子官网_web_11.26" stroke="none" stroke-width="1" fill="none" fill-rule="evenodd">
        <g id="首页_banner5" transform="translate(-424.000000, -4251.000000)" fill="#FFFFFF" fill-rule="nonzero">
            <g id="个人解决方案" transform="translate(-127.000000, 3878.000000)">
                <g id="按钮" transform="translate(392.000000, 356.000000)">
                    <g id="编组-5" transform="translate(159.000000, 17.000000)">
                        <path d="M20.6913345,23.1533244 L11.4744824,13.8032724 L20.6316823,4.31467862 C21.0381227,3.89800306 21.0366747,3.22093693 20.628539,2.80248705 L20.6285037,2.80248705 C20.2203681,2.38400095 19.560026,2.38255253 19.1537975,2.90619426 L9.38545363,12.921399 C9.25368191,13.0726146 9.102238,13.2512415 9.07712684,13.3476342 C8.92282216,13.7408453 9,14.2239673 9.30874277,14.6210892 L19.2135557,24.7762118 C19.6234219,25.0892888 20.2868013,25.0909183 20.6949723,24.6724322 C21.1030727,24.2539461 21.1014834,23.5738383 20.6913345,23.1533244 Z" id="路径备份-2" transform="translate(15.000000, 13.750000) scale(-1, 1) translate(-15.000000, -13.750000) "></path>
                    </g>
                </g>
            </g>
        </g>
    </g>
</svg>